<svg xmlns="http://www.w3.org/2000/svg" width="23.103" height="23.098" viewBox="0 0 23.103 23.098">
  <g id="top_menu_item" data-name="top menu item" transform="translate(0.552 0.552)">
    <path class="top-bar-icon" id="Path_53" data-name="Path 53" d="M11-12.524A5.63,5.63,0,0,0,5.36-6.885,5.63,5.63,0,0,0,11-1.246a5.63,5.63,0,0,0,5.639-5.639A5.63,5.63,0,0,0,11-12.524Zm0,9.306A3.673,3.673,0,0,1,7.333-6.885,3.67,3.67,0,0,1,11-10.551a3.67,3.67,0,0,1,3.666,3.666A3.673,3.673,0,0,1,11-3.219Zm7.185-9.536a1.315,1.315,0,0,0-1.315-1.315,1.315,1.315,0,0,0-1.315,1.315,1.312,1.312,0,0,0,1.315,1.315A1.312,1.312,0,0,0,18.185-12.755Zm3.735,1.335a6.509,6.509,0,0,0-1.777-4.609,6.552,6.552,0,0,0-4.609-1.777c-1.816-.1-7.259-.1-9.075,0a6.542,6.542,0,0,0-4.609,1.772A6.531,6.531,0,0,0,.074-11.425c-.1,1.816-.1,7.259,0,9.075A6.509,6.509,0,0,0,1.851,2.259,6.561,6.561,0,0,0,6.459,4.035c1.816.1,7.259.1,9.075,0a6.509,6.509,0,0,0,4.609-1.777A6.552,6.552,0,0,0,21.919-2.35C22.023-4.166,22.023-9.6,21.919-11.42ZM19.573-.4a3.712,3.712,0,0,1-2.091,2.091c-1.448.574-4.883.442-6.483.442s-5.04.128-6.483-.442A3.712,3.712,0,0,1,2.425-.4c-.574-1.448-.442-4.883-.442-6.483s-.128-5.041.442-6.483a3.712,3.712,0,0,1,2.091-2.091C5.964-16.033,9.4-15.9,11-15.9s5.041-.128,6.483.442a3.712,3.712,0,0,1,2.091,2.091c.574,1.448.442,4.883.442,6.483S20.148-1.844,19.573-.4Z" transform="translate(0.003 17.882)" fill="currentColor" stroke="rgba(0,0,0)" stroke-width="0"/>
  </g>
</svg>
