<svg xmlns="http://www.w3.org/2000/svg" width="180.132" height="114.975" viewBox="0 0 180.132 114.975">
  <g id="Group_39" data-name="Group 39" transform="translate(-70.934 -78.791)">
    <g id="Group_1" data-name="Group 1" transform="translate(70.934 149.552)">
      <path id="Path_1" data-name="Path 1" d="M80.124,261.217a6.785,6.785,0,0,1,4.828,2l.22.219,1.657-1.655-.217-.221a9.032,9.032,0,0,0-6.489-2.706,9.178,9.178,0,1,0,6.487,15.679l.217-.219-1.654-1.687-.222.221a6.813,6.813,0,1,1-4.828-11.629Z" transform="translate(-70.934 -258.815)" fill="#fff"/>
      <path id="Path_2" data-name="Path 2" d="M126.245,258.852a9.178,9.178,0,1,0,9.189,9.191A9.2,9.2,0,0,0,126.245,258.852Zm0,15.991a6.813,6.813,0,1,1,6.8-6.8A6.808,6.808,0,0,1,126.245,274.843Z" transform="translate(-98.921 -258.815)" fill="#fff"/>
      <path id="Path_3" data-name="Path 3" d="M173.857,264.306a2.823,2.823,0,0,1,3.021-2.871h.311v-1.952l-.123-.312h-.311a4.992,4.992,0,0,0-5.186,5.135,6.737,6.737,0,0,0,2.011,4.5,4.888,4.888,0,0,1,1.521,3.108,2.926,2.926,0,0,1-3.071,3.046,1.093,1.093,0,0,1-.508-.091l-.45-.223v2.458l.2.077a2.1,2.1,0,0,0,.756.1,5.129,5.129,0,0,0,5.359-5.362,7.038,7.038,0,0,0-2.035-4.6A4.793,4.793,0,0,1,173.857,264.306Z" transform="translate(-131.699 -259.009)" fill="#fff"/>
      <path id="Path_4" data-name="Path 4" d="M198.986,259.04v17.934H201.3V266.055l3.419,4.627,3.419-4.627v10.919h2.312V259.04l-5.732,7.784Z" transform="translate(-148.638 -258.929)" fill="#fff"/>
      <path id="Path_5" data-name="Path 5" d="M248.528,258.852a9.178,9.178,0,1,0,9.189,9.191A9.2,9.2,0,0,0,248.528,258.852Zm0,15.991a6.813,6.813,0,1,1,6.8-6.8A6.808,6.808,0,0,1,248.528,274.843Z" transform="translate(-173.124 -258.815)" fill="#fff"/>
      <path id="Path_6" data-name="Path 6" d="M299.351,259.738h-2.922V277.4h2.314v-5.247h.609a6.206,6.206,0,0,0,0-12.413Zm0,10.1h-.609v-7.784h.609a3.892,3.892,0,0,1,0,7.784Z" transform="translate(-207.767 -259.353)" fill="#fff"/>
      <path id="Path_7" data-name="Path 7" d="M337.482,258.852a9.178,9.178,0,1,0,9.189,9.191A9.2,9.2,0,0,0,337.482,258.852Zm0,15.991a6.813,6.813,0,1,1,6.8-6.8A6.808,6.808,0,0,1,337.482,274.843Z" transform="translate(-227.103 -258.815)" fill="#fff"/>
      <path id="Path_8" data-name="Path 8" d="M388.168,259.738h-2.314V277.4h8.008v-2.315h-5.694Z" transform="translate(-262.032 -259.353)" fill="#fff"/>
      <rect id="Rectangle_1" data-name="Rectangle 1" width="2.314" height="17.66" transform="translate(135.888 0.385)" fill="#fff"/>
      <path id="Path_9" data-name="Path 9" d="M432.771,262.052h3.68V277.4h2.312V262.052h3.706v-2.315h-9.7Z" transform="translate(-290.501 -259.353)" fill="#fff"/>
      <path id="Path_10" data-name="Path 10" d="M459.614,276.8H462.1l.92-2.462h7.576l.92,2.462H474l-7.192-18.045Zm4.185-4.479,3.008-7.264,3.007,7.264Z" transform="translate(-306.79 -258.758)" fill="#fff"/>
      <path id="Path_11" data-name="Path 11" d="M512.051,259.385v10.159l-7.212-10.694v18.008h2.313V266.4l7.212,10.735v-17.75Z" transform="translate(-334.233 -258.814)" fill="#fff"/>
    </g>
    <g id="Group_2" data-name="Group 2" transform="translate(111.756 182.856)">
      <path id="Path_12" data-name="Path 12" d="M174.757,348.924a5.464,5.464,0,0,1,9.319-3.871l-1.469,1.468a3.39,3.39,0,1,0,0,4.79l1.469,1.47a5.465,5.465,0,0,1-9.319-3.858Z" transform="translate(-174.757 -343.462)" fill="#fff"/>
      <path id="Path_13" data-name="Path 13" d="M229.23,354.488V344.005h2.08v8.4h3.5v2.08Z" transform="translate(-207.812 -343.792)" fill="#fff"/>
      <path id="Path_14" data-name="Path 14" d="M274.1,354.488V344.005h2.08v10.483Z" transform="translate(-235.038 -343.792)" fill="#fff"/>
      <path id="Path_15" data-name="Path 15" d="M362.537,354.488V344.005h2.082v10.483Z" transform="translate(-288.704 -343.792)" fill="#fff"/>
      <path id="Path_16" data-name="Path 16" d="M399.656,348.924a5.464,5.464,0,0,1,9.319-3.871l-1.469,1.468a3.39,3.39,0,1,0,0,4.79l1.469,1.47a5.465,5.465,0,0,1-9.319-3.858Z" transform="translate(-311.229 -343.462)" fill="#fff"/>
      <path id="Path_17" data-name="Path 17" d="M316.87,349.148l-3.562-5.185h-.875v10.5h2.08v-5.221l3.6,5.221h.841V343.979H316.87Z" transform="translate(-258.3 -343.766)" fill="#fff"/>
    </g>
    <path id="Path_18" data-name="Path 18" d="M274.914,105.3a18.08,18.08,0,0,0-16.629,7.081,17.268,17.268,0,0,1-11.848,6.95A21.309,21.309,0,0,1,244.957,87.2a15.232,15.232,0,0,0-3.527.22,23.707,23.707,0,0,0,1.41,31.964A17.218,17.218,0,0,1,227.2,101.342a17.249,17.249,0,0,1,15.6-16.245A15.7,15.7,0,0,1,244.533,85a14.654,14.654,0,0,1,2.724.256,17.049,17.049,0,0,1,11.124,6.972,17.438,17.438,0,0,0,16.11,6.991l8.785-.45-.318-1.416a23.973,23.973,0,0,0-23.235-18.566A23.676,23.676,0,0,0,246.655,82.7a20.141,20.141,0,0,0-4.068-.045,19.664,19.664,0,0,0-12.448,33.125,19.488,19.488,0,0,0,14.253,6.118q.645,0,1.285-.043a19.106,19.106,0,0,0,3.644-.59,19.726,19.726,0,0,0,10.94-7.444,15.644,15.644,0,0,1,14.444-6.085l5.676.35A21.288,21.288,0,0,1,252.3,122.613a10.307,10.307,0,0,1-3.643,1.06A23.784,23.784,0,0,0,283.1,107.191l.267-1.369ZM259.722,81.238A21.528,21.528,0,0,1,280.2,96.48l-5.9.3a15.006,15.006,0,0,1-13.923-5.976,19.516,19.516,0,0,0-10.125-7.353A21.242,21.242,0,0,1,259.722,81.238Z" transform="translate(-93.326)" fill="#fff"/>
  </g>
</svg>
