<?xml version="1.0" encoding="utf-8"?>
<!-- Generator: Adobe Illustrator 27.0.1, SVG Export Plug-In . SVG Version: 6.00 Build 0)  -->
<svg version="1.1" id="Layer_1" xmlns="http://www.w3.org/2000/svg" xmlns:xlink="http://www.w3.org/1999/xlink" x="0px" y="0px"
	 viewBox="0 0 1332.7 250" style="enable-background:new 0 0 1332.7 250;" xml:space="preserve">
<style type="text/css">
	.st0{fill:#FFFFFF;}
</style>
<g>
	<g>
		<path class="st0" d="M341.4,102.2c6.2,0,12,2.4,16.4,6.8l0.7,0.7l5.6-5.6l-0.7-0.7c-5.8-5.9-13.6-9.2-22-9.2
			c-17.2,0-31.1,14-31.1,31.2c0,17.1,14,31.1,31.1,31.1c8.3,0,16.1-3.2,22-9.1l0.7-0.7l-5.6-5.7l-0.8,0.7
			c-4.4,4.4-10.2,6.8-16.4,6.8c-12.7,0-23.1-10.3-23.1-23C318.3,112.6,328.6,102.2,341.4,102.2z"/>
		<path class="st0" d="M402.8,94.2c-17.2,0-31.1,14-31.1,31.2c0,17.1,14,31.1,31.1,31.1s31.1-13.9,31.1-31.1
			C434,108.2,420,94.2,402.8,94.2z M402.8,148.4c-12.7,0-23.1-10.3-23.1-23c0-12.8,10.3-23.1,23.1-23.1s23.1,10.4,23.1,23.1
			C425.9,138.1,415.5,148.4,402.8,148.4z"/>
		<path class="st0" d="M453.1,112.1c0-5.6,4.1-9.7,10.2-9.7h1.1v-6.6l-0.4-1.1h-1.1c-10.2,0-17.6,7.3-17.6,17.4
			c0,7,3.6,11.4,6.8,15.3c2.6,3.2,5.2,6.2,5.2,10.5c0,6.1-4.3,10.3-10.4,10.3c-0.8,0-1.3-0.1-1.7-0.3l-1.5-0.8v8.3l0.7,0.3
			c0.9,0.3,1.8,0.3,2.6,0.3c10.7,0,18.2-7.5,18.2-18.2c0-7-3.7-11.6-6.9-15.6C455.2,118.7,453.1,115.8,453.1,112.1z"/>
		<polygon class="st0" points="480.9,94.5 480.9,155.3 488.7,155.3 488.7,118.3 500.3,133.9 511.9,118.3 511.9,155.3 519.7,155.3 
			519.7,94.5 500.3,120.9 		"/>
		<path class="st0" d="M565.8,94.2c-17.2,0-31.1,14-31.1,31.2c0,17.1,14,31.1,31.1,31.1s31.1-13.9,31.1-31.1
			C596.9,108.2,583,94.2,565.8,94.2z M565.8,148.4c-12.7,0-23.1-10.3-23.1-23c0-12.8,10.3-23.1,23.1-23.1s23.1,10.4,23.1,23.1
			C588.9,138.1,578.5,148.4,565.8,148.4z"/>
		<path class="st0" d="M620.6,95.4h-9.9v59.9h7.8v-17.8h2.1c11.6,0,21-9.4,21-21S632.2,95.4,620.6,95.4z M620.6,129.6h-2.1v-26.4
			h2.1c7.3,0,13.2,5.9,13.2,13.2C633.8,123.7,627.9,129.6,620.6,129.6z"/>
		<path class="st0" d="M684.4,94.2c-17.2,0-31.1,14-31.1,31.2c0,17.1,14,31.1,31.1,31.1s31.1-13.9,31.1-31.1
			C715.5,108.2,701.5,94.2,684.4,94.2z M684.4,148.4c-12.7,0-23.1-10.3-23.1-23c0-12.8,10.3-23.1,23.1-23.1
			c12.7,0,23.1,10.4,23.1,23.1C707.4,138.1,697.1,148.4,684.4,148.4z"/>
		<polygon class="st0" points="737.8,95.4 729.9,95.4 729.9,155.3 757.1,155.3 757.1,147.4 737.8,147.4 		"/>
		<rect x="770.8" y="95.4" class="st0" width="7.8" height="59.9"/>
		<polygon class="st0" points="792.4,103.3 804.9,103.3 804.9,155.3 812.8,155.3 812.8,103.3 825.3,103.3 825.3,95.4 792.4,95.4 		
			"/>
		<path class="st0" d="M828.2,155.3h8.4l3.1-8.3h25.7l3.1,8.3h8.4l-24.4-61.2L828.2,155.3z M842.4,140.1l10.2-24.6l10.2,24.6H842.4z
			"/>
		<polygon class="st0" points="912.9,96 912.9,130.5 888.5,94.2 888.5,155.3 896.3,155.3 896.3,119.8 920.8,156.2 920.8,96 		"/>
	</g>
	<g>
		<path class="st0" d="M976.1,125.3c0-9,7.3-16.4,16.4-16.4c4.5,0,8.6,1.8,11.6,4.8l-4.4,4.4c-1.8-1.8-4.4-3-7.2-3
			c-5.6,0-10.2,4.5-10.2,10.2c0,5.6,4.5,10.1,10.2,10.1c2.8,0,5.3-1.1,7.2-3l4.4,4.4c-3,2.9-7.1,4.8-11.6,4.8
			C983.5,141.6,976.1,134.3,976.1,125.3z"/>
		<path class="st0" d="M1040.4,141v-31.4h6.2v25.2h10.5v6.2H1040.4z"/>
		<path class="st0" d="M1093.3,141v-31.4h6.2V141H1093.3z"/>
		<path class="st0" d="M1197.6,141v-31.4h6.2V141H1197.6z"/>
		<path class="st0" d="M1241.4,125.3c0-9,7.3-16.4,16.4-16.4c4.5,0,8.6,1.8,11.6,4.8l-4.4,4.4c-1.8-1.8-4.4-3-7.2-3
			c-5.6,0-10.2,4.5-10.2,10.2c0,5.6,4.5,10.1,10.2,10.1c2.8,0,5.3-1.1,7.2-3l4.4,4.4c-3,2.9-7.1,4.8-11.6,4.8
			C1248.7,141.6,1241.4,134.3,1241.4,125.3z"/>
		<polygon class="st0" points="1151.8,125.1 1141.1,109.5 1138.5,109.5 1138.5,141 1144.7,141 1144.7,125.3 1155.5,141 1158,141 
			1158,109.6 1151.8,109.6 		"/>
	</g>
	<path class="st0" d="M219,134.2c-21.6-2.4-42.7,6.6-54.9,23.4c-9.3,12.8-23.6,21.1-39.1,22.9c-16.3-12.9-26.7-32.9-26.7-55.2
		c0-20,8.4-38,21.8-50.8c-5.2-0.4-10.2,0.4-11.6,0.7c-11.3,13.6-18.2,31.1-18.2,50.1c0,21.6,8.7,41.2,22.9,55.4
		c-13.8-1.2-26.4-7.3-36.1-17.5c-10.8-11.4-16.4-26.4-15.6-42.1C62.9,93,85.1,70,113,67.5c0,0,2.7-0.3,5.7-0.3c3.3,0,7,0.4,9,0.8
		c14.7,2.4,27.8,10.5,36.7,23c11.8,16.5,32.3,25.4,53.2,23.1l29-1.5l-1.1-4.7c-8-35.5-40.2-61.3-76.7-61.3
		c-15.9,0-30.7,4.8-43.1,12.9c-4.4-0.5-8.9-0.6-13.4-0.1c-31.9,2.9-57.2,29.2-58.9,61.3c-0.9,18,5.4,35.1,17.8,48.1
		c12.4,13,29.1,20.2,47.1,20.2c1.4,0,2.8,0,4.2-0.1c1.5-0.1,7.2-0.5,12-1.9c14.3-3.7,27.2-12.4,36.1-24.6
		c10.5-14.5,28.7-22.2,47.7-20.1l18.7,1.2c-8.1,30.6-36.1,52.4-68.2,52.4c-8.6,0-16.9-1.6-24.5-4.5c-4.8,2.6-10,3.3-12,3.5
		c10.9,5.8,23.3,9.1,36.5,9.1c37.5,0,70-26.7,77.2-63.5l0.9-4.5L219,134.2z M168.9,54.7c31.1,0,58.8,20.9,67.6,50.3l-19.5,1
		c-18.2,2-35.8-5.6-46-19.7c-8.4-11.8-20.2-20.2-33.4-24.3C147,57.4,157.6,54.7,168.9,54.7z"/>
</g>
</svg>
