<svg xmlns="http://www.w3.org/2000/svg" xmlns:xlink="http://www.w3.org/1999/xlink" width="135.746" height="24.962" viewBox="0 0 135.746 24.962">
  <defs>
    <clipPath id="clip-path">
      <rect id="Rectangle_19" data-name="Rectangle 19" width="135.746" height="24.962" fill="none"/>
    </clipPath>
  </defs>
  <g id="Group_68" data-name="Group 68" clip-path="url(#clip-path)">
    <path id="Path_55" data-name="Path 55" d="M250.155,20.082a3.592,3.592,0,0,1,2.557,1.057l.116.116.878-.876-.115-.117a4.783,4.783,0,0,0-3.436-1.432,4.86,4.86,0,1,0,3.435,8.3l.115-.116-.876-.893-.117.117a3.607,3.607,0,1,1-2.557-6.157" transform="translate(-204.918 -15.731)" fill="#fff"/>
    <path id="Path_56" data-name="Path 56" d="M308.492,18.83a4.86,4.86,0,1,0,4.865,4.867,4.871,4.871,0,0,0-4.865-4.867m0,8.467a3.607,3.607,0,1,1,3.6-3.6,3.6,3.6,0,0,1-3.6,3.6" transform="translate(-253.653 -15.731)" fill="#fff"/>
    <path id="Path_57" data-name="Path 57" d="M373.425,21.953a1.5,1.5,0,0,1,1.6-1.52h.165V19.4l-.065-.165h-.165a2.643,2.643,0,0,0-2.746,2.719,3.566,3.566,0,0,0,1.065,2.383,2.589,2.589,0,0,1,.805,1.646,1.549,1.549,0,0,1-1.626,1.612.579.579,0,0,1-.269-.048l-.238-.118v1.3l.107.041a1.119,1.119,0,0,0,.4.05,2.715,2.715,0,0,0,2.837-2.839,3.728,3.728,0,0,0-1.078-2.436,2.538,2.538,0,0,1-.792-1.593" transform="translate(-310.731 -16.068)" fill="#fff"/>
    <path id="Path_58" data-name="Path 58" d="M407.256,19.068v9.5h1.225V22.782l1.81,2.45,1.81-2.45v5.782h1.224v-9.5l-3.035,4.121Z" transform="translate(-340.227 -15.93)" fill="#fff"/>
    <path id="Path_59" data-name="Path 59" d="M463.163,18.83a4.86,4.86,0,1,0,4.865,4.867,4.871,4.871,0,0,0-4.865-4.867m0,8.467a3.607,3.607,0,1,1,3.6-3.6,3.6,3.6,0,0,1-3.6,3.6" transform="translate(-382.867 -15.731)" fill="#fff"/>
    <path id="Path_60" data-name="Path 60" d="M532.055,19.951h-1.547V29.3h1.225V26.523h.322a3.286,3.286,0,0,0,0-6.572m0,5.347h-.322V21.177h.322a2.061,2.061,0,1,1,0,4.121" transform="translate(-443.192 -16.667)" fill="#fff"/>
    <path id="Path_61" data-name="Path 61" d="M575.677,18.83a4.86,4.86,0,1,0,4.865,4.867,4.871,4.871,0,0,0-4.865-4.867m0,8.467a3.607,3.607,0,1,1,3.6-3.6,3.6,3.6,0,0,1-3.6,3.6" transform="translate(-476.863 -15.731)" fill="#fff"/>
    <path id="Path_62" data-name="Path 62" d="M644.844,19.951h-1.225V29.3h4.24V28.075h-3.015Z" transform="translate(-537.687 -16.667)" fill="#fff"/>
    <rect id="Rectangle_16" data-name="Rectangle 16" width="1.225" height="9.35" transform="translate(112.32 3.284)" fill="#fff"/>
    <path id="Path_63" data-name="Path 63" d="M702.961,21.176h1.949V29.3h1.225V21.176H708.1V19.95h-5.135Z" transform="translate(-587.262 -16.667)" fill="#fff"/>
    <path id="Path_64" data-name="Path 64" d="M736.914,28.266h1.315l.487-1.3h4.011l.487,1.3h1.315l-3.808-9.554Zm2.216-2.372,1.593-3.846,1.592,3.846Z" transform="translate(-615.626 -15.632)" fill="#fff"/>
    <path id="Path_65" data-name="Path 65" d="M797.936,19.111V24.49l-3.818-5.662v9.535h1.225V22.825l3.818,5.684v-9.4Z" transform="translate(-663.415 -15.729)" fill="#fff"/>
    <path id="Path_66" data-name="Path 66" d="M249.856,108.464a2.893,2.893,0,0,1,4.934-2.049l-.778.777a1.795,1.795,0,1,0,0,2.536l.778.778a2.894,2.894,0,0,1-4.934-2.043" transform="translate(-208.733 -88.196)" fill="#fff"/>
    <path id="Path_67" data-name="Path 67" d="M318.757,111.809v-5.55h1.1v4.449h1.856v1.1Z" transform="translate(-266.293 -88.769)" fill="#fff"/>
    <rect id="Rectangle_17" data-name="Rectangle 17" width="1.101" height="5.55" transform="translate(61.804 17.489)" fill="#fff"/>
    <rect id="Rectangle_18" data-name="Rectangle 18" width="1.102" height="5.55" transform="translate(80.216 17.489)" fill="#fff"/>
    <path id="Path_68" data-name="Path 68" d="M534.321,108.464a2.893,2.893,0,0,1,4.934-2.049l-.778.777a1.795,1.795,0,1,0,0,2.536l.778.778a2.894,2.894,0,0,1-4.934-2.043" transform="translate(-446.378 -88.196)" fill="#fff"/>
    <path id="Path_69" data-name="Path 69" d="M426.345,108.951l-1.886-2.745H424v5.557h1.1V109l1.9,2.764h.445v-5.548h-1.1Z" transform="translate(-354.211 -88.725)" fill="#fff"/>
    <path id="Path_70" data-name="Path 70" d="M26.3,13.893A9.475,9.475,0,0,0,17.585,17.6a9.049,9.049,0,0,1-6.209,3.642A11.167,11.167,0,0,1,10.6,4.408a7.977,7.977,0,0,0-1.848.115A12.425,12.425,0,0,0,9.49,21.275a9.024,9.024,0,0,1-8.2-9.457A9.04,9.04,0,0,1,9.472,3.3a8.2,8.2,0,0,1,.906-.048,7.659,7.659,0,0,1,1.428.134,8.935,8.935,0,0,1,5.83,3.654,9.139,9.139,0,0,0,8.443,3.664l4.6-.236-.167-.742A12.563,12.563,0,0,0,18.338,0,12.408,12.408,0,0,0,11.49,2.05a10.564,10.564,0,0,0-2.132-.024A10.328,10.328,0,0,0,.014,11.752,10.3,10.3,0,0,0,10.3,22.593q.338,0,.673-.023a10.017,10.017,0,0,0,1.91-.309,10.338,10.338,0,0,0,5.734-3.9A8.2,8.2,0,0,1,26.19,15.17l2.975.183a11.157,11.157,0,0,1-14.718,7.611,5.4,5.4,0,0,1-1.91.556,12.465,12.465,0,0,0,18.051-8.638l.14-.718ZM18.338,1.281A11.282,11.282,0,0,1,29.069,9.27l-3.094.159a7.864,7.864,0,0,1-7.3-3.132,10.229,10.229,0,0,0-5.306-3.854,11.134,11.134,0,0,1,4.965-1.162" transform="translate(0 0.001)" fill="#ac8959"/>
  </g>
</svg>
